<svg xmlns="http://www.w3.org/2000/svg" xml:space="preserve" width="1500" height="536" data-id="lg_Rr3lU1w3fVtsFwW6KR" data-version="1" viewBox="0 0 1500 536"><g data-padding="20"><g transform="translate(10 10)scale(.96269)"><path fill="none" stroke="#1f2d5a" stroke-width="23" d="M768.682.183a267.817 267.817 0 1 0 0 535.634 267.817 267.817 0 1 0 0-535.634Z"/><rect width="435.092" height="62.15" x="151.136" y="-163.075" fill="none" rx="0" ry="0" transform="translate(400.5 425.23)"/><path fill="#1f2d5a" d="M571.102 311.13q-4.65 0-8.07-1.45-3.43-1.45-5.36-4.21-1.93-2.77-2.09-6.72h7.06q.19 2.1 1.32 3.49 1.12 1.4 2.98 2.08 1.85.69 4.11.69 2.36 0 4.17-.73 1.81-.72 2.83-2.02 1.02-1.31 1.02-3.02 0-1.56-.89-2.58-.9-1.02-2.53-1.73-1.62-.72-3.8-1.25l-4.54-1.19q-5.02-1.28-7.83-3.89-2.8-2.6-2.8-6.85 0-3.54 1.9-6.2 1.91-2.66 5.21-4.12 3.31-1.47 7.5-1.47 4.27 0 7.49 1.48t5.03 4.08q1.82 2.61 1.9 5.94h-6.96q-.27-2.58-2.29-3.99-2.03-1.41-5.28-1.41-2.26 0-3.88.68-1.63.69-2.5 1.87t-.87 2.71q0 1.67 1.03 2.74 1.04 1.08 2.61 1.72 1.57.65 3.18 1.05l3.73.97q2.23.53 4.33 1.42 2.09.88 3.77 2.24t2.67 3.29q1 1.93 1 4.54 0 3.52-1.8 6.19t-5.19 4.16q-3.38 1.49-8.16 1.49m32.59-.63h-7.17v-40.01h14.96q4.59 0 7.73 1.72t4.76 4.71q1.61 3 1.61 6.81 0 3.84-1.63 6.82-1.62 2.98-4.79 4.7t-7.79 1.72h-9.91v-5.91h8.97q2.71 0 4.45-.94 1.73-.94 2.55-2.6.82-1.67.82-3.79t-.82-3.76-2.57-2.55q-1.74-.91-4.48-.91h-6.69Zm37.14 0h-7.84l13.96-40.01h9.1l14.29 40.01h-7.87l-7.11-20.78q-1.05-3.22-2.18-7.29t-2.5-9.25h1.51q-1.35 5.23-2.43 9.33-1.09 4.09-2.06 7.21Zm21.37-9.9h-21.08v-5.78h21.08Zm24.35 9.9h-7.17v-40.01h14.96q4.59 0 7.73 1.61 3.15 1.61 4.76 4.5t1.61 6.7-1.63 6.63q-1.62 2.82-4.79 4.35t-7.79 1.53h-10.69v-5.93h9.75q2.71 0 4.43-.77 1.72-.76 2.55-2.24.84-1.48.84-3.57 0-2.15-.84-3.67-.83-1.51-2.56-2.32-1.73-.8-4.47-.8h-6.69Zm23.37 0h-8.03l-9.73-18.15h7.85Zm24.47-21.05-10.26 11.2v-6.8q1.29-2.09 2.54-3.93 1.24-1.84 2.65-3.64t3.16-3.81l10.5-11.98h8.92l-16.98 19.15Zm-8.28 21.05h-7.17v-40.01h7.17v11.87l-.13 9.64.13 3.52Zm26.05 0h-8.45l-12.73-18.82 4.51-5.4Zm23.18.63q-4.65 0-8.07-1.45-3.43-1.45-5.36-4.21-1.93-2.77-2.1-6.72h7.07q.19 2.1 1.31 3.49 1.13 1.4 2.98 2.08 1.86.69 4.11.69 2.37 0 4.18-.73 1.81-.72 2.83-2.02 1.02-1.31 1.02-3.02 0-1.56-.9-2.58t-2.52-1.73q-1.63-.72-3.8-1.25l-4.54-1.19q-5.02-1.28-7.83-3.89-2.8-2.6-2.8-6.85 0-3.54 1.9-6.2 1.91-2.66 5.21-4.12 3.31-1.47 7.49-1.47 4.27 0 7.5 1.48 3.22 1.48 5.03 4.08 1.82 2.61 1.9 5.94h-6.96q-.27-2.58-2.3-3.99-2.02-1.41-5.27-1.41-2.26 0-3.88.68-1.63.69-2.5 1.87t-.87 2.71q0 1.67 1.03 2.74 1.03 1.08 2.61 1.72 1.57.65 3.18 1.05l3.73.97q2.23.53 4.32 1.42 2.1.88 3.78 2.24t2.67 3.29.99 4.54q0 3.52-1.8 6.19t-5.18 4.16-8.16 1.49m32.59-.63h-7.17v-40.01h14.96q4.59 0 7.73 1.72t4.75 4.71q1.62 3 1.62 6.81 0 3.84-1.63 6.82-1.62 2.98-4.79 4.7t-7.79 1.72h-9.91v-5.91h8.97q2.71 0 4.44-.94 1.74-.94 2.55-2.6.82-1.67.82-3.79t-.82-3.76q-.81-1.64-2.56-2.55t-4.48-.91h-6.69Zm39.15 0h-7.17v-40.01h7.17v16.54h18.61v-16.54h7.17v40.01h-7.17v-17.42h-18.61Zm63.64 0h-26.11v-40.01h26v6.04h-18.83v10.8h17.43v5.96h-17.43v11.17h18.94Zm18.05 0h-7.17v-40.01h14.96q4.59 0 7.73 1.61t4.75 4.5q1.62 2.89 1.62 6.7t-1.63 6.63q-1.62 2.82-4.79 4.35t-7.79 1.53h-10.69v-5.93h9.75q2.71 0 4.43-.77 1.72-.76 2.55-2.24t.83-3.57q0-2.15-.83-3.67-.83-1.51-2.56-2.32-1.74-.8-4.47-.8h-6.69Zm23.36 0h-8.03l-9.72-18.15h7.84Zm35.13 0h-26.11v-40.01h26v6.04h-18.83v10.8h17.43v5.96h-17.43v11.17h18.94Z"/><rect width="167.123" height="12.43" x="285.121" y="-138.215" fill="none" rx="0" ry="0" transform="translate(400.5 522.4)"/><path fill="#1f2d5a" d="M689.822 393.85h-1.19l-2.18-8h1.04l1.27 4.91q.1.39.19.79.09.41.18.83.08.41.16.85h-.13q.08-.44.17-.85.09-.42.18-.83.1-.4.2-.79l1.3-4.91h1.16l1.28 4.91q.11.39.2.79.1.41.19.83.09.41.17.85h-.14q.08-.44.17-.85.08-.42.18-.83.09-.4.19-.79l1.26-4.91h1.06l-2.2 8h-1.18l-1.38-5.07q-.13-.49-.26-1.08-.12-.58-.24-1.34h.22q-.12.72-.23 1.28-.12.57-.27 1.14Zm10.28 0h-1.02v-8h1.02v3.46h4.2v-3.46h1.02v8h-1.02v-3.64h-4.2Zm13.19 0h-4.92v-8h4.88v.9h-3.86v2.61h3.59v.9h-3.59v2.69h3.9Zm3.82 0h-1.02v-8h2.74q.94 0 1.54.32t.9.88q.29.55.29 1.27 0 .71-.29 1.26-.3.55-.9.86t-1.53.31h-2.18v-.91h2.13q.63 0 1.02-.19.38-.18.56-.52.17-.34.17-.81 0-.48-.17-.83-.18-.35-.57-.55-.38-.2-1.02-.2h-1.67Zm4.76 0h-1.18l-1.93-3.6h1.15Zm7.34 0h-4.93v-8h4.88v.9h-3.86v2.61h3.6v.9h-3.6v2.69h3.91Zm7-8h1.02v8h-1.02Zm6.56 8h-1.93v-.9h1.87q.98 0 1.62-.37.64-.38.96-1.08.31-.69.31-1.67 0-.96-.31-1.65-.32-.69-.94-1.06t-1.55-.37h-2v-.9h2.07q1.18 0 2 .48.83.47 1.28 1.37.44.89.44 2.13 0 1.25-.44 2.15-.45.9-1.3 1.39-.86.48-2.08.48m-2.5-8h1.03v8h-1.03Zm13.97 8h-4.93v-8h4.88v.9h-3.86v2.61h3.6v.9h-3.6v2.69h3.91Zm3.2 0h-1.08l2.91-8h1.18l2.94 8h-1.07l-1.7-4.75q-.16-.44-.36-1.1-.21-.65-.51-1.67h.2q-.29 1.03-.5 1.7-.22.66-.36 1.07Zm4.49-2.23h-4.11v-.9h4.11Zm6.37 2.37q-.87 0-1.5-.28-.64-.28-1-.78t-.41-1.17h1.05q.04.45.31.74.26.29.67.43.41.15.88.15.54 0 .97-.18.44-.18.69-.5t.25-.75q0-.38-.22-.62-.21-.25-.57-.4-.36-.16-.79-.28l-.97-.27q-.97-.27-1.5-.78-.54-.51-.54-1.31 0-.68.36-1.18.37-.51.99-.79.63-.28 1.4-.28.79 0 1.4.28.6.28.95.76.36.48.38 1.09h-1q-.07-.59-.56-.91t-1.2-.32q-.52 0-.91.17t-.6.46q-.22.3-.22.67 0 .42.26.68.26.25.62.39.36.15.65.23l.8.22q.32.08.71.23t.74.4q.36.25.59.64.22.38.22.94 0 .66-.34 1.18-.34.53-.99.83-.65.31-1.57.31m9.82-8.14h1.02v8h-1.02Zm8.79 8h-4.72v-8h1.02v7.1h3.7Zm7.33 0h-4.72v-8h1.02v7.1h3.7Zm5.73.14q-.95 0-1.65-.37-.71-.37-1.1-1.02-.38-.64-.38-1.46v-5.28h1.02v5.2q0 .57.25 1.02.26.45.73.71.47.25 1.13.25.65 0 1.12-.25.47-.26.73-.71.25-.45.25-1.02v-5.2h1.02v5.28q0 .82-.39 1.46-.38.65-1.09 1.02-.7.37-1.64.37m7.14-.14h-.98v-8h1.45l1.98 5.05q.06.17.15.44t.19.58.19.62.16.57h-.22q.07-.25.16-.55.1-.3.19-.62.1-.31.2-.59.09-.27.16-.45l1.94-5.05h1.46v8h-1.01v-5.13l.02-.67q0-.35.01-.71l.02-.7h.08q-.11.37-.24.76-.12.38-.24.74-.13.36-.23.65-.11.3-.19.49l-1.78 4.57h-.89l-1.82-4.57q-.07-.19-.17-.48-.11-.28-.23-.63l-.25-.75q-.12-.39-.26-.78h.1l.02.65q0 .35.01.71t.01.69q.01.33.01.59Zm10.08-8h1.02v8h-1.02Zm5.09 8h-1.02v-8h1.2l3.25 5.12q.13.2.32.51.18.31.39.7t.42.84h-.15q-.05-.46-.07-.89-.02-.42-.02-.77-.01-.36-.01-.6v-4.91h1.02v8h-1.21l-2.9-4.55q-.2-.32-.4-.66-.21-.33-.46-.79-.26-.46-.64-1.14h.19q.02.6.04 1.1.03.51.04.88.01.38.01.6Zm8.76 0h-1.08l2.9-8h1.18l2.95 8h-1.08l-1.69-4.75q-.16-.44-.37-1.1-.2-.65-.5-1.67h.2q-.29 1.03-.51 1.7-.21.66-.35 1.07Zm4.49-2.23h-4.11v-.9h4.11Zm5.9-4.87h-2.52v-.9h6.05v.9h-2.51v7.1h-1.02Zm11.06 7.1h-4.92v-8h4.87v.9h-3.85v2.61h3.59v.9h-3.59v2.69h3.9Zm-61.51-306.638c-30.617-12.306-65.412 2.538-77.718 33.155-12.306 30.616 2.538 65.41 33.154 77.716s65.412-2.538 77.717-33.154c12.306-30.616-2.538-65.411-33.154-77.717m-12.012 55.862-17.035 25.668a2.325 2.325 0 1 1-3.875-2.558l14.926-22.506-17.887-2.046a2.325 2.325 0 0 1-1.674-3.596l17.36-26.163a2.326 2.326 0 0 1 3.875 2.572l-15.267 23.002 17.902 2.046a2.325 2.325 0 0 1 1.674 3.581"/></g><path fill="transparent" stroke="transparent" d="M482 0h536v536H482z"/></g></svg>